<svg width="160" height="160" viewBox="0 0 160 160" fill="none" xmlns="http://www.w3.org/2000/svg">
  <defs>
    <linearGradient id="faviconGradient" x1="20" y1="18" x2="136" y2="144" gradientUnits="userSpaceOnUse">
      <stop stop-color="#1A7CFF"/>
      <stop offset="1" stop-color="#15C6A1"/>
    </linearGradient>
  </defs>
  <rect x="14" y="14" width="132" height="132" rx="34" fill="url(#faviconGradient)"/>
  <path d="M36 42H66L49 80L66 118H36L19 80L36 42Z" fill="#CFE3FF" fill-opacity="0.68"/>
  <path d="M124 42H94L111 80L94 118H124L141 80L124 42Z" fill="#EEFFFB" fill-opacity="0.52"/>
  <path d="M80 30L114 46V114L80 130L46 114V46L80 30Z" fill="#102241"/>
  <path d="M80 49L86.5 66.5L104 73L86.5 79.5L80 97L73.5 79.5L56 73L73.5 66.5L80 49Z" fill="#69FFE4"/>
</svg>
