<?xml version="1.0" encoding="UTF-8"?>
<svg width="16px" height="11px" viewBox="0 0 16 11" version="1.1" xmlns="http://www.w3.org/2000/svg" xmlns:xlink="http://www.w3.org/1999/xlink">
    <title>形状</title>
    <g id="过稿稿-2" stroke="none" stroke-width="1" fill="none" fill-rule="evenodd">
        <g id="可观测-工作台" transform="translate(-929.000000, -92.000000)" fill="#595959" fill-rule="nonzero">
            <g id="隐藏、不可见" transform="translate(929.000000, 88.000000)">
                <path d="M4.80253067,5.17906442 C5.81288344,4.81671779 6.88075153,4.63458589 7.95628834,4.6422546 C11.1292178,4.6422546 13.7212423,6.06480061 15.732362,8.90605828 C15.9720092,9.24539877 15.9739264,9.69210123 15.7361963,10.0314417 C14.8657975,11.2795245 13.8765337,12.2515337 12.7703221,12.9513037 L14.0989264,14.2492331 L13.3780675,14.9528374 L2.88726994,4.71510736 L3.60812883,4.01342025 L4.80253067,5.17906442 L4.80253067,5.17906442 Z M10.6326687,10.8673313 C10.8761503,10.4532209 11.0122699,9.97584356 11.0122699,9.46779141 C11.0122699,7.86886503 9.64340491,6.57093558 7.95437117,6.57093558 C7.45015337,6.57093558 6.97661043,6.68596626 6.55674847,6.89110429 L7.74731595,8.05483129 C7.81633436,8.0452454 7.88535276,8.04141104 7.95628834,8.04141104 C8.8017638,8.04141104 9.48427914,8.68941718 9.48427914,9.48888037 C9.48427914,9.57131902 9.47661043,9.65184049 9.46319018,9.73044479 L10.6326687,10.8673313 L10.6326687,10.8673313 Z M2.92753067,6.14148773 L5.15337423,8.31173313 C4.99041411,8.66641104 4.90030675,9.05751534 4.90030675,9.46779141 C4.90030675,11.0667178 6.26917178,12.3627301 7.95820552,12.3627301 C8.35889571,12.3627301 8.74233129,12.2898773 9.09509202,12.1556748 L10.8397239,13.8581288 C9.90989264,14.1533742 8.93596626,14.2990798 7.95820552,14.2933282 C4.75843558,14.2933282 2.16641104,12.8726994 0.180214724,10.0314417 C-0.0575153374,9.69210123 -0.0555981595,9.2434816 0.18404908,8.9041411 C0.998849693,7.75 1.91526074,6.82783742 2.92753067,6.14148773 L2.92753067,6.14148773 Z M7.83742331,10.9344325 C7.0743865,10.875 6.47047546,10.2883436 6.4321319,9.56173313 L7.83742331,10.9344325 Z" id="形状"></path>
            </g>
        </g>
    </g>
</svg>